<svg width="713" height="1081" viewBox="0 0 713 1081" fill="none" xmlns="http://www.w3.org/2000/svg">
<path fill-rule="evenodd" clip-rule="evenodd" d="M689.246 1063.54C706.092 1062.77 699.316 1034.54 698.107 1024.18C684.77 986.316 687.906 945.011 682.66 905.328C679.392 868.284 675.194 831.356 671.662 794.34C664.725 719.202 614.914 566.24 558.07 541.641C550.909 511.545 521.334 483.451 483.914 483.451C458.393 454.513 427.674 434.148 388.273 438.26C371.991 438.969 356.201 455.511 340.599 458.705C331.863 459.859 254.34 456.889 238.811 465.724C227.994 471.044 218.229 480.875 221.409 493.391C226.484 508.555 210.713 492.147 177.815 508.332C110.731 546.925 150.818 598.554 152.594 600.154C110.731 655.946 74.1408 701.209 57.211 769.403C46.2388 820.032 47.4739 872.298 38.2808 923.187C35.0348 940.832 30.0551 957.874 24.6666 975.009C18.8267 997.434 15.987 1053.33 12.7681 1053.83C6.90455 1055.22 16.1568 1066.75 22.3699 1066.76C194.626 1094.13 369.597 1067.9 542.78 1063.61C591.585 1061.98 640.443 1061.61 689.246 1063.54Z" fill="white"/>
<path fill-rule="evenodd" clip-rule="evenodd" d="M428.166 605.078C428.246 604.323 429.309 604.324 429.391 605.078L430.607 616.324C432.087 630.059 433.512 643.767 434.544 657.565C435.832 674.772 436.693 691.975 437.108 709.22C438.555 769.282 438.842 829.376 438.964 889.453C447.446 888.89 455.929 888.348 464.416 887.824C470.174 887.468 475.933 887.126 481.692 886.79L496.377 885.937L502.422 885.581C506.508 885.339 511.149 884.354 514.005 887.821C515.149 889.208 515.723 891.012 514.657 892.659C512.198 896.459 508.421 896.326 504.149 896.491C500.119 896.647 496.088 896.799 492.058 896.948C483.421 897.27 474.784 897.573 466.145 897.805C457.078 898.049 448.015 898.246 438.952 898.394C438.86 923.756 437.765 949.087 436.58 974.421L436.044 985.822C434.595 1016.65 433.036 1047.51 430.821 1078.3C430.638 1080.82 426.916 1080.81 426.735 1078.3C424.241 1043.63 422.595 1008.88 420.963 974.157C419.78 948.983 419.091 923.803 418.763 898.619C417.565 898.626 416.367 898.642 415.17 898.646C381.152 898.788 347.143 898.93 313.126 898.625C313.183 898.689 313.238 898.753 313.276 898.838C315.737 904.405 315.972 911.508 315.912 917.482C315.843 924.334 314.88 931.102 313.232 937.764C307.33 961.633 292.106 983.012 274.767 1000.69L274.201 1001.26C270.112 1005.4 265.419 1009.56 262.908 1014.83C260.343 1020.22 259.453 1026.51 258.187 1032.3L258.039 1032.96L253.09 1054.86C251.518 1061.81 251.071 1071.96 245.324 1076.98C239.962 1081.66 232.858 1079.21 230.334 1073.18C228.364 1068.48 230.326 1063.31 231.494 1058.61L240.638 1021.79C242.141 1015.79 243.782 1009.74 247.025 1004.35C250.347 998.823 255.217 994.818 260.186 990.72C269.595 982.96 278.233 974.077 285.539 964.458C292.841 954.843 299.082 944.245 303.459 933.1C305.65 927.521 307.446 921.725 308.684 915.883C309.862 910.338 309.851 904.595 311.111 899.11C311.197 898.731 311.531 898.471 311.914 898.356C311.823 898.111 311.961 897.781 312.319 897.759L340.139 896.046C364.869 894.518 389.598 892.951 414.306 891.16L418.672 890.858C418.333 857.257 418.62 823.648 419.254 790.034C419.835 759.21 419.847 728.377 420.804 697.556C421.28 682.26 422.306 666.999 423.447 651.734C424.615 636.123 426.485 620.643 428.166 605.078ZM166.943 783.807C166.646 782.095 168.894 781.035 169.931 782.6C181.777 800.486 187.489 819.914 189.896 840.845C192.023 859.317 191.396 878.056 190.337 896.577C189.208 916.332 187.89 936.081 186.557 955.825L184.509 986.102L179.371 1062C179.003 1067.43 177.717 1072.37 172.837 1074.89C172.219 1075.39 171.574 1075.83 170.824 1076.22C168.187 1077.57 164.69 1076.88 163.166 1074.29L163.777 1074.68C164.309 1075 163.712 1074.55 161.983 1073.33L160.516 1071.52C159.45 1069.98 158.769 1068.47 158.496 1066.65C158.07 1063.81 158.621 1060.7 158.815 1057.85L162.183 1008.08C164.802 969.39 167.86 930.708 170.166 891.995C171.24 873.953 171.992 855.892 171.483 837.818C170.976 819.844 170.019 801.565 166.943 783.807ZM269.425 450.625L270.082 450.52C293.612 446.776 319.198 447.476 340.702 458.341C340.88 458.431 340.799 458.714 340.599 458.705L333.677 458.441C311.765 457.619 289.921 457.132 268.376 462.063L266.17 462.572C258.411 464.385 250.309 466.604 244.076 471.513C238.12 476.205 235.154 483.443 232.301 490.107L231.92 490.986C229.026 497.567 225.364 503.809 219.021 507.924C210.806 513.253 200.926 512.601 191.506 513.324C174.921 514.601 161.361 526.115 154.614 540.204C150.529 548.735 148.786 558.3 148.441 567.63C148.264 572.38 148.239 577.315 148.9 582.033C149.111 583.542 151.058 589.038 152.051 588.906C154.257 588.613 156.274 589.715 156.961 591.404C162.411 586.361 168.017 581.464 173.804 576.742C188.229 564.975 203.766 554.311 220.128 545.147C232.616 538.152 245.788 531.222 259.429 525.983C258.348 525.961 257.282 526.166 256.251 526.68C255.799 526.906 255.35 526.363 255.707 526.004C260.003 521.675 265.149 521.058 270.337 522.213C271.444 521.876 272.552 521.549 273.664 521.24C274.218 521.085 274.493 521.816 274.042 522.098L272.767 522.878C278.427 524.694 283.984 528.263 288.383 531.08C301.02 539.17 312.143 549.059 323.418 558.764L325.468 560.523C335.393 569.011 345.571 577.26 356.847 584.07C362.75 587.634 368.95 590.932 375.453 593.384C381.031 595.489 390.112 596.814 392.725 602.46C395.047 605.162 394.077 608.61 391.357 610.429C386.771 615.264 377.596 612.14 372.131 610.126C365.542 607.699 359.159 604.78 353.071 601.358C341.253 594.712 330.356 586.449 320.204 577.659C309.603 568.478 299.602 558.725 289.291 549.256C284.823 545.153 280.459 540.954 275.984 536.858L273.737 534.819C271.453 532.767 268.199 529.57 264.72 527.634C258.167 531.379 251.512 534.969 245.017 538.811C235.951 544.172 227.152 549.921 218.489 555.859C201.811 567.29 186.006 580.093 171.334 593.815C144.425 618.982 121.499 647.72 101.471 678.149L99.9504 680.468C88.5696 697.886 77.807 715.864 70.1759 735.11C61.7795 756.288 57.6958 778.558 55.4775 801.038C53.2758 823.357 52.5331 845.789 50.0725 868.087C47.5491 890.957 42.5773 913.321 36.9221 935.644L35.5733 940.936C30.4563 960.928 25.1748 980.92 22.5444 1001.38C21.1402 1012.31 20.2956 1023.39 20.4865 1034.41C20.6782 1045.5 22.4965 1056.34 23.9634 1067.3C24.5256 1071.5 20.2093 1075.01 16.3471 1075.57C11.9052 1076.21 8.08916 1073.49 6.70849 1069.54C2.40434 1057.22 1.62248 1043.6 1.75758 1030.67C1.89356 1017.54 3.64294 1004.49 6.10444 991.59C10.9455 966.21 18.4163 941.355 24.666 916.279C30.1739 894.177 33.8705 872.037 35.863 849.394C37.9314 825.903 39.17 802.333 42.9434 779.011C46.6679 755.987 53.6758 733.995 64.2444 713.001C73.8673 693.886 85.8628 675.894 98.4388 658.455C113.711 637.279 130.484 617.128 149.233 598.768C147.549 598.698 145.819 598.177 144.231 597.229C139.373 594.326 137.11 588.647 136.414 583.462C134.786 571.333 135.179 558.671 138.436 546.812C143.689 527.683 157.323 510.685 177.083 503.79C182.169 502.015 187.576 501.367 192.966 501.239C198.081 501.117 203.667 501.756 208.603 500.203C216.458 497.729 219.825 488.867 222.775 482.15L222.91 481.841C226.693 473.281 231.232 465.943 239.424 460.598C248.163 454.894 259.113 452.3 269.425 450.625ZM492.998 484.48C500.068 482.13 508.908 484.263 515.823 486.315C523.527 488.603 530.645 492.816 536.749 497.819C543.187 503.096 548.509 509.612 552.268 516.891L552.628 517.592C556.061 524.344 559.972 533.613 558.241 541.031C558.191 541.241 558.134 541.444 558.07 541.641C572.099 548.256 585.055 556.541 596.337 567.043C609.475 579.271 620.598 593.185 630.012 608.217C667.4 667.92 673.98 739.623 678.396 807.711L679.497 824.974C681.895 862.253 684.701 899.443 691.99 936.207L692.522 938.861C700.313 977.353 711.466 1016.14 710.336 1055.63C709.997 1067.46 691.743 1067.38 691.214 1055.63C689.222 1011.4 678.446 968.695 671.15 925.157C658.312 848.561 664.744 769.593 646.553 693.764C639.414 664.005 628.356 635.14 612.565 608.576C604.764 595.454 595.84 582.774 585.385 571.453C576.391 561.712 567.042 552.338 556.531 544.149C553.172 547.371 546.461 545.729 544.707 541.031C543.503 537.802 543.854 534.028 543.081 530.645C542.364 527.507 541.374 524.395 540.056 521.44C537.429 515.549 533.573 509.893 529.122 505.125C524.313 499.972 518.786 495.69 512.602 492.155C506.375 488.596 499.565 487.533 492.998 484.932C492.776 484.845 492.755 484.561 492.998 484.48ZM520.468 893.839C520.479 893.529 520.862 893.382 521.097 893.59C523.576 895.775 525.074 898.911 526.899 901.598C529.003 904.698 531.212 907.733 533.529 910.691C538.171 916.615 543.339 922.199 548.548 927.671C553.393 932.759 558.556 937.632 563.913 942.226C569.716 947.204 576.219 951.645 581.492 957.158C592.493 968.659 594.271 984.446 596.592 999.268L596.847 1000.87C598.262 1009.67 599.53 1018.49 600.674 1027.32C601.23 1031.62 601.784 1035.92 602.238 1040.23L602.376 1041.59C602.78 1045.81 602.889 1050.09 600.361 1053.77C597.655 1057.71 591.502 1059.09 587.843 1055.31C581.558 1048.82 582.737 1037.29 581.919 1028.93C581.244 1022.03 580.477 1015.13 579.619 1008.24L579.183 1004.79C578.172 996.958 577.351 988.966 575.479 981.265C573.829 974.484 570.685 969.366 565.527 964.453C560.33 959.505 554.93 954.885 550.134 949.556C545.046 943.903 540.457 937.842 536.322 931.517C532.785 926.107 529.95 920.219 527.353 914.338L526.922 913.358C524.412 907.623 520.272 900.157 520.468 893.839ZM611.217 647.499C611.272 646.699 612.506 646.687 612.524 647.499C612.68 654.379 612.83 661.259 612.979 668.14C614.178 723.58 613.439 779.152 619.246 834.402C621.985 860.453 627.028 886.12 632.864 911.68C635.85 924.76 638.983 937.808 641.959 950.889C644.86 963.637 647.971 976.447 650.272 989.314C652.533 1001.96 654.558 1014.7 655.467 1027.51L655.58 1029.18C655.971 1035.39 657.839 1044.51 654.272 1050.01C650.407 1055.97 643.008 1056.08 638.867 1050.39C634.978 1045.05 635.945 1035.55 635.258 1029.18C634.56 1022.69 633.822 1016.2 632.983 1009.72C631.347 997.094 629.192 984.493 626.95 971.949C622.28 945.826 615.508 920.031 610.509 893.95C605.385 867.225 601.744 840.309 601.59 813.098C601.438 785.657 604.47 758.269 606.001 730.887C607.556 703.078 609.323 675.289 611.217 647.499ZM337.801 475.059C339.355 470.047 344.839 466.914 350.19 468.321C355.092 469.612 359.14 475.312 357.224 480.189C355.132 485.511 351.476 490.049 348.394 494.885C345.547 499.355 341.395 502.874 338.495 507.264L341.69 510.564C343.289 512.21 344.893 513.846 346.514 515.455L352.087 520.985C356.428 525.283 360.797 529.558 365.288 533.707C378.495 545.909 391.911 557.711 406.702 568.161C410.069 570.539 413.463 572.903 416.951 575.117L418.252 575.943C420.645 577.444 423.315 578.919 426.206 578.665C433.231 578.047 439.578 570.901 444.406 566.453L444.659 566.221C456.622 555.318 467.699 543.397 477.384 530.579C479.535 527.731 481.617 524.835 483.644 521.904C478.962 516.665 480.08 506.438 479.822 500.084C479.64 495.617 479.626 491.148 479.601 486.677L479.588 485.776C479.531 482.882 479.395 480.106 481.355 477.725C481.47 477.587 481.706 477.592 481.851 477.664C484.537 479.012 485.364 481.269 486.51 483.8L486.63 484.063C488.024 487.101 489.36 490.168 490.711 493.224C492.125 496.423 493.422 499.669 494.737 502.907C495.349 504.413 495.933 505.926 496.504 507.446C496.851 508.417 497.211 509.383 497.581 510.347L497.668 510.422C498.156 510.818 498.57 511.237 498.927 511.67C500.425 512.388 501.616 513.696 502.174 515.618C503.39 519.802 500.874 523.213 498.629 526.534C489.512 540.026 479.119 552.883 467.566 564.546C461.827 570.341 455.791 575.875 449.507 581.124L448.408 582.035C442.762 586.682 436.633 591.084 429.094 592.172C420.27 593.443 413.09 589.24 406.335 584.399L405.661 583.913C399.258 579.27 392.984 574.464 386.906 569.437C374.512 559.187 362.721 548.182 352.257 536.108C342.078 524.364 332.017 511.232 325.743 497.101C325.36 496.24 326.366 495.34 327.154 496.058C330.219 498.853 333.167 501.799 336.081 504.783C336.162 500.391 335.316 495.961 335.787 491.541C336.361 486.168 336.195 480.232 337.801 475.059Z" fill="black"/>
<path fill-rule="evenodd" clip-rule="evenodd" d="M591.529 304.003C589.376 285.088 592.162 245.552 592.349 243.15C593.529 227.965 586.414 168.002 572.964 173.527C550.402 155.666 520.351 151.722 492.251 149.838C433.884 145.924 371.791 154.909 326.721 194.189C304.432 214.588 282.733 244.257 284.477 275.149C264.226 304.431 235.677 344.598 260.909 378.831C269.485 389.768 283.117 393.841 293.891 402.124C315.563 419.604 329.159 444.69 351.037 462.066C408.997 514.149 507.414 525.029 564.36 465.789C608.395 422.885 601.275 358.699 593.529 304.003C588.322 267.23 595.729 340.904 591.529 304.003Z" fill="white"/>
<path fill-rule="evenodd" clip-rule="evenodd" d="M414.28 69.6251C429.89 66.4751 445.919 64.5151 461.86 65.1051L463.089 65.1528C475.083 65.6322 490.273 66.6926 500.736 73.6671C501.338 73.0631 502.306 72.7531 503.184 73.1721C515.618 79.1071 529.294 83.3981 542.386 87.6621C555.418 91.9051 568.938 94.7061 582.597 95.8351C587.736 96.2601 592.134 101.809 588.88 106.786C588.106 107.972 587.352 109.17 586.601 110.371C587.857 110.24 589.113 110.105 590.369 109.978C594.502 109.562 598.631 113.973 598.386 117.997C598.233 120.528 597.96 123.029 597.556 125.5C599.13 125.467 600.695 125.703 602.207 126.342C609.863 129.575 609.33 138.694 608.757 145.632C607.963 155.26 604.362 165.458 597.676 172.664C602.668 177.849 606.202 184.041 608.31 191.395C609.839 196.765 610.69 202.485 610.27 208.075L610.136 209.749C609.617 215.815 608.584 222.531 604.22 226.895C601.98 229.145 599.22 229.965 596.589 229.705C598.18 243.685 599.2 257.745 600.16 271.755L600.61 278.451C602.752 310.831 604.361 343.422 603.94 375.855C603.549 406.165 597.56 435.585 578.97 460.195C562.039 482.605 537.73 499.125 510.23 505.405C495.41 508.795 480.28 509.035 465.28 506.875C458.009 505.825 450.69 504.215 443.789 501.675C436.15 498.855 430.66 494.705 425.52 488.485C423.089 485.535 424.259 479.255 429.1 479.845C436.421 480.733 443.105 481.803 450.124 483.968L451.129 484.285C458.12 486.525 465.36 488.195 472.669 488.905C487.64 490.355 502.839 488.895 517.18 484.355C540.53 476.955 560.64 460.465 573.53 439.745C588.83 415.185 590.56 387.305 590.339 359.065C590.102 328.077 589.094 297.07 587.449 266.114L587.169 260.955C586.299 245.025 585.459 229.085 584.72 213.145C584.49 208.145 584.14 203.105 583.509 198.115C577.74 194.735 572.57 190.075 569.2 184.325C562.43 187.125 555.31 189.145 548.759 190.755C533.585 194.487 517.831 195.393 502.386 193.056C498.22 194.777 493.971 196.29 489.657 197.592C488.491 198.109 487.325 198.617 486.16 199.115C475.759 203.565 465.209 207.335 454.23 210.095L451.533 210.768C445.755 212.192 439.479 213.595 433.33 214.035C432.32 214.425 431.23 214.755 430.039 215.045C424.44 216.405 418.629 216.835 412.89 216.355C407.299 215.885 403.259 210.235 406.339 204.945C408.589 201.085 410.86 197.235 413.15 193.395C405.18 196.715 396.95 199.475 388.65 201.815C380.27 204.175 371.77 206.165 363.259 207.995C358.709 208.965 354.14 209.825 349.6 210.795C346.35 211.485 341.36 211.845 338.709 213.985C335.78 216.335 334.95 221.815 333.839 225.195C332.379 229.585 331.009 233.995 329.759 238.455C327.27 247.355 325.23 256.385 323.65 265.505C322.07 274.635 321.009 283.855 320.419 293.105C319.83 302.345 320.089 311.645 319.14 320.845C318.629 325.725 313.39 328.235 309.52 324.825C309.066 324.425 308.608 324.021 308.155 323.612L307.48 322.995C304.169 319.995 300.959 316.815 298.31 313.235C297.83 312.575 297.37 311.885 296.94 311.185C296.87 311.185 296.81 311.165 296.74 311.115L296.005 310.562C287.918 304.543 274.406 296.694 266.52 306.695C264.007 309.881 262.72 313.938 261.653 317.851L259.779 324.856C258.567 329.428 257.426 334.026 256.759 338.705C255.249 349.185 256.009 361.265 263.22 369.665C266.1 373.025 270.07 375.425 274.499 376.055C276.97 376.395 279.41 375.975 281.86 375.665C284.35 375.355 286.749 375.855 289.24 375.615C293.2 375.225 294.93 379.965 293.45 382.945C292.65 384.545 291.709 385.925 290.64 387.095C291.499 387.835 292.32 388.635 293.11 389.475C295.45 390.225 297.549 391.835 299.12 393.965C300.39 395.685 301.049 397.555 301.16 399.525C301.299 400.015 301.419 400.515 301.53 401.025L303.675 404.507C304.147 405.271 304.617 406.025 305.089 406.765C310.549 415.365 316.61 422.645 324.14 429.505C331.39 436.105 339.259 442.015 346.07 449.095L346.872 449.936C353.222 456.627 359.915 464.726 357.43 474.455C356.79 476.955 353.299 478.755 351.02 477.065C343.69 471.625 339.999 463.005 333.78 456.405C327.379 449.605 320.289 443.495 313.87 436.715C307.799 430.315 303.009 423.065 299.4 415.085C297.959 416.675 295.86 417.805 292.95 418.245C287.95 418.995 283.289 416.065 281.11 411.735C279.709 412.355 278.28 412.915 276.839 413.355C269.259 415.675 264.49 407.245 267.35 401.015C268.879 397.675 270.789 394.775 273.16 392.335C265.749 391.315 258.209 387.485 253.339 382.705C241.12 370.695 239.44 352.645 242.19 336.595C243.65 328.085 246.169 319.475 249.44 311.485C250.009 310.095 250.62 308.695 251.289 307.315C250.919 307.305 250.539 307.145 250.299 306.835C248.089 303.815 245.4 301.345 243.759 297.965C242.249 294.865 240.57 291.725 239.379 288.495C236.93 281.885 235.73 274.425 234.93 267.435C233.28 253.125 233.919 238.905 236.11 224.685C239.839 200.465 248.847 177.287 262.118 156.949C261.395 156.569 260.703 156.111 260.058 155.569L259.739 155.291L259.221 154.823C255.434 151.396 255.761 144.973 259.221 141.502L260.314 140.407C261.698 139.032 262.891 137.943 265.126 136.446C265.456 136.225 265.793 136.017 266.134 135.823C264.964 133.661 264.558 131.133 265.373 128.344C268.213 118.628 282.193 118.972 291.054 123.209C300.857 114.46 311.727 106.865 323.509 100.715C351.57 86.0751 383.299 75.8651 414.28 69.6251ZM269.23 325.525C274.47 323.815 281.43 327.405 286.14 329.565C292.11 332.305 297.19 336.355 302.11 340.635C304.56 342.775 304.999 346.275 304.39 349.265C304.329 349.565 304.27 349.875 304.199 350.185C303.549 353.375 299.989 355.885 296.839 355.795C290.249 355.615 287.11 349.925 283.379 345.105C282.94 345.885 282.39 346.605 281.709 347.145L281.249 347.505C279.701 348.684 277.995 349.626 275.949 349.535C274.499 349.465 273.11 349.095 271.829 348.425C268.629 346.735 267.22 342.595 268.089 339.225C268.629 337.105 269.869 335.445 271.489 334.295L270.885 333.882C269.593 332.983 268.415 332.035 267.497 330.636L267.289 330.305H267.369C266.369 328.585 267.02 326.245 269.23 325.525Z" fill="black"/>
<path fill-rule="evenodd" clip-rule="evenodd" d="M590.313 315.111C581.508 370.254 520.048 376.352 509.128 321.609C510.881 320.898 512.141 319.499 511.878 316.784C511.816 304.854 515.816 292.245 527.438 285.61C539.449 278.764 553.505 278.086 567.404 278.258C593.928 277.673 593.37 298.201 590.313 315.111ZM499.506 291.129C491.182 290.804 480.651 291.076 473.194 295.772C471.144 290.66 465.817 285.202 460.435 282.284C480.439 282.826 501.031 281.003 521.185 279.588C516.36 282.633 511.872 287.207 508.955 292.496C506.248 291.16 502.372 291.284 499.506 291.129ZM462.815 320.957C439.733 394.524 382.117 362.459 375.835 353.031C364.505 337.429 362.374 299.503 372.243 289.363C386.37 280.193 406.37 282.553 423.059 282.328C453.719 282.711 475.494 291.204 462.815 320.957ZM617.567 287.121C611.296 286.362 604.594 286.209 598.763 288.765C596.968 281.7 591.332 275.793 584.969 273.194C584.199 272.299 584.314 271.819 581.683 271.953C565.527 267.457 547.448 269.836 531.923 274.446C507.403 276.358 481.678 277.866 456.952 280.5C433.789 270.869 363.889 269.457 359.545 293.196C354.081 292.44 344.775 288.458 340.184 293.859C306.504 288.572 271.703 295.92 237.877 299.192C229.363 300.644 224.977 316.29 234.642 316.076C240.076 314.711 234.475 306.334 241.792 305.704C274.428 302.403 306.351 297.721 339.321 297.172C338.174 302.444 361.128 302.787 361.467 299.709C361.516 299.732 361.568 299.747 361.617 299.768C355.946 319.34 361.065 347.508 371.316 359.645C385.678 375.537 421.734 380.097 437.722 369.872C458.346 360.434 479.801 313.061 473.775 297.323C484.712 294.113 495.525 295.077 506.876 296.712C504.278 303.509 499.792 320.241 506.246 321.692C505.061 354.911 537.712 375.639 567.812 362.012C593.864 350.688 602.974 314.845 599.787 293.09C603.03 298.892 630.261 292.575 617.567 287.121Z" fill="black"/>
<path fill-rule="evenodd" clip-rule="evenodd" d="M504.042 436.159C496.675 438.293 488.768 438.483 481.259 436.28C474.448 434.281 467.455 429.882 462.442 424.062C457.989 418.892 455.105 412.608 455.219 405.901C455.232 405.135 455.506 404.496 455.927 403.999C456.38 403.465 457.014 403.098 457.693 402.939C458.391 402.775 459.129 402.833 459.757 403.119C460.326 403.377 460.813 403.816 461.118 404.457C461.888 405.469 462.655 406.466 463.426 407.435C469.62 415.084 475.618 420.799 484.932 422.85C489.985 423.962 495.032 423.469 499.663 421.771C504.62 419.954 509.102 416.76 512.613 412.671C514.2 410.824 516.074 410.07 517.906 410.057C519.982 410.043 522.034 411.007 523.579 412.549C525.099 414.065 526.116 416.124 526.209 418.279C526.29 420.17 525.673 422.145 524.032 423.907C518.627 429.711 511.621 433.964 504.042 436.159ZM503.814 340.367C511.366 344.957 522.872 355.66 514.748 367.04C505.186 377.073 491.419 365.569 484.634 360.366C478.343 356.334 471.275 366.705 477.112 371.413C526.136 407.708 546.031 341.567 507.634 334.97C503.406 334.243 501.836 338.947 503.814 340.367ZM433.175 320.17C430.748 318.618 427.893 318.085 424.729 319.525C422.256 320.649 417.919 324.398 414.901 329.325C412.836 332.697 411.372 336.651 411.677 340.771C411.748 341.728 411.394 342.433 410.837 342.955C410.396 343.367 409.76 343.669 409.013 343.764C408.379 343.844 407.669 343.772 407.091 343.592C405.993 343.249 405.412 342.536 405.193 341.955C403.08 336.343 403.99 330.08 406.359 324.43C409.555 316.805 415.359 310.418 419.162 308.359C425.67 304.833 433.347 304.671 439.864 308.262C445.411 311.319 448.88 316.253 452.33 321.283C453.064 322.353 453.791 323.414 454.544 324.457C456.051 326.546 456.201 328.619 455.618 330.396C454.971 332.364 453.322 334.026 451.259 334.895C449.353 335.699 447.141 335.812 445.183 334.986C443.529 334.288 442.012 332.929 441.051 330.622C439.434 326.736 436.739 322.45 433.175 320.17ZM556.441 328.814C554.779 329.68 553.478 329.942 551.634 329.389C550.615 329.083 549.607 328.496 548.818 327.707C548.036 326.925 547.472 325.953 547.252 324.874C546.713 322.211 545.256 319.719 543.181 318.095C541.406 316.706 539.167 315.97 536.683 316.385C534.002 316.833 531.449 318.552 529.69 320.579C529.102 321.257 528.641 322.027 528.178 322.792C527.311 324.223 526.469 325.553 525.274 326.603C524.821 327.003 524.138 327.28 523.477 327.28C523.208 327.28 522.935 327.236 522.676 327.155C520.008 324.478 519.495 322.446 519.581 320.431C519.671 318.319 520.504 316.179 521.85 314.184C525.008 309.502 531.003 305.663 535.048 304.793C540.589 303.603 546.091 305.032 550.503 308.126C555.042 311.311 558.405 316.254 559.454 321.825C559.706 323.167 559.599 324.615 559.088 325.871C558.589 327.098 557.719 328.149 556.441 328.814ZM445.394 270.253C442.069 273.492 438.134 273.994 434.153 274.44C431.941 274.691 430.175 274.892 428.437 275.284C423.661 276.363 418.939 277.986 414.632 280.325C410.129 282.77 405.222 285.718 401.692 289.495C400.853 290.394 400.062 291.337 399.269 292.282C398.547 293.144 397.851 293.974 397.117 294.774C396.275 295.693 395.475 296.656 394.679 297.617C394.187 298.427 394.09 298.627 393.99 298.834C393.841 299.146 393.668 299.495 393.47 299.869C393.198 300.382 392.881 300.944 392.548 301.452C391.994 302.383 391.697 302.639 391.44 302.753C391.014 302.943 390.61 303.037 390.218 302.986C389.851 302.939 389.504 302.762 389.162 302.473C387.455 301.031 386.952 298.664 387.004 296.151C387.082 292.338 388.488 288.117 389.785 285.522C392.799 279.492 396.979 273.224 402.006 268.724C407.742 263.587 414.018 259.698 421.226 257.018C425.705 255.352 430.891 253.823 435.771 254.016C439.284 254.155 442.637 255.199 445.407 257.807C447.107 259.408 447.924 261.685 447.924 263.96C447.924 266.28 447.076 268.615 445.394 270.253ZM563.203 299.918C562.992 300.264 562.699 300.503 562.373 300.646C562.032 300.797 561.651 300.84 561.285 300.778C560.921 300.717 560.575 300.552 560.3 300.3C560.037 300.058 559.837 299.737 559.747 299.345C557.54 289.649 553.253 282.435 544.104 277.784C539.604 275.495 534.429 274.041 529.53 272.882C528.106 272.545 526.602 272.327 525.087 272.106C520.339 271.413 515.557 270.619 512.462 266.781C510.597 264.469 509.814 261.513 510.256 258.809C510.673 256.263 512.161 253.929 514.865 252.53C521.598 249.049 529.964 252.465 536.763 255.374C537.267 255.59 537.762 255.802 538.246 256.007C544.895 258.813 550.959 262.517 555.944 267.815C559.899 272.018 563.563 278.231 565.039 284.623C566.267 289.941 565.978 295.369 563.203 299.918Z" fill="black"/>
</svg>
