<?xml version="1.0" encoding="UTF-8"?>
<!DOCTYPE svg PUBLIC "-//W3C//DTD SVG 1.1//EN" "http://www.w3.org/Graphics/SVG/1.1/DTD/svg11.dtd">
<svg xmlns="http://www.w3.org/2000/svg" version="1.1" width="221px" height="300px" style="shape-rendering:geometricPrecision; text-rendering:geometricPrecision; image-rendering:optimizeQuality; fill-rule:evenodd; clip-rule:evenodd" xmlns:xlink="http://www.w3.org/1999/xlink">
<g><path style="opacity:0.664" fill="#0b1010" d="M 94.5,-0.5 C 106.833,-0.5 119.167,-0.5 131.5,-0.5C 147.133,1.3261 161.3,6.99277 174,16.5C 189.848,7.91176 201.515,11.9118 209,28.5C 211.206,40.5904 206.706,49.0904 195.5,54C 198.761,66.585 200.595,79.4183 201,92.5C 201.5,110.164 201.667,127.83 201.5,145.5C 209.332,145.585 215.665,148.585 220.5,154.5C 220.5,156.5 220.5,158.5 220.5,160.5C 219.102,162.806 217.435,164.973 215.5,167C 210.657,168.214 206.49,167.047 203,163.5C 205.313,184.47 204.98,205.47 202,226.5C 199.693,242.943 193.193,257.443 182.5,270C 186.752,273.581 190.252,277.748 193,282.5C 194.931,290.916 191.598,295.916 183,297.5C 181.373,297.375 179.873,296.875 178.5,296C 173.946,291.446 169.446,286.946 165,282.5C 152.608,288.891 139.442,292.724 125.5,294C 102.557,296.543 80.2233,294.043 58.5,286.5C 55.9722,286.763 53.6389,287.596 51.5,289C 47.2151,293.133 42.5485,296.633 37.5,299.5C 35.5,299.5 33.5,299.5 31.5,299.5C 27.3124,296.973 24.6457,293.307 23.5,288.5C 26.4778,281.679 31.1445,276.179 37.5,272C 27.5634,262.633 21.3967,251.133 19,237.5C 17.5658,228.39 16.7325,219.224 16.5,210C 17.5489,194.488 18.3822,178.988 19,163.5C 14.9046,167.469 10.0713,168.969 4.5,168C 2.56252,165.929 0.895855,163.762 -0.5,161.5C -0.5,159.5 -0.5,157.5 -0.5,155.5C 4.59881,149.288 11.2655,146.288 19.5,146.5C 18.4398,127.504 17.4398,108.504 16.5,89.5C 16.0865,78.8506 17.0865,68.3506 19.5,58C 13.6889,54.8556 9.1889,50.3556 6,44.5C 5.1161,23.0498 15.2828,13.8831 36.5,17C 38.0806,17.7065 39.5806,18.5399 41,19.5C 57.1138,8.18492 74.9471,1.51825 94.5,-0.5 Z"/></g>
<g><path style="opacity:1" fill="#68d6e1" d="M 96.5,1.5 C 118.148,-0.00288809 139.148,2.83045 159.5,10C 181.809,22.0828 193.976,40.9161 196,66.5C 197.329,75.461 198.329,84.461 199,93.5C 199.544,132.853 200.211,172.186 201,211.5C 198.21,262.29 171.377,289.123 120.5,292C 44.2709,297.439 10.7709,262.272 20,186.5C 21.1238,173.519 21.9572,160.519 22.5,147.5C 21.1412,127.002 19.8079,106.502 18.5,86C 17.8708,65.7751 23.0375,47.2751 34,30.5C 44.2878,17.9274 57.4545,9.7607 73.5,6C 81.2686,4.34925 88.9353,2.84925 96.5,1.5 Z"/></g>
<g><path style="opacity:1" fill="#66d2dd" d="M 182.5,14.5 C 196.769,13.771 205.103,20.4377 207.5,34.5C 206.643,42.5335 202.476,48.2002 195,51.5C 193.202,47.2736 191.702,42.9403 190.5,38.5C 194.28,29.7496 191.28,25.2496 181.5,25C 179.607,22.6969 177.607,20.5302 175.5,18.5C 177.765,16.8726 180.099,15.5392 182.5,14.5 Z"/></g>
<g><path style="opacity:1" fill="#67d3de" d="M 22.5,18.5 C 28.6112,17.8378 34.2778,19.0045 39.5,22C 36.462,24.7026 33.7954,27.7026 31.5,31C 29.3659,31.1273 27.1993,30.9607 25,30.5C 19.4816,31.5158 17.4816,34.8492 19,40.5C 20.7137,42.0432 22.2137,43.7099 23.5,45.5C 22.0678,48.3273 21.4012,51.3273 21.5,54.5C 7.71559,49.6617 4.21559,40.6617 11,27.5C 14.1607,23.4905 17.994,20.4905 22.5,18.5 Z"/></g>
<g><path style="opacity:1" fill="#1a2021" d="M 65.5,18.5 C 79.056,16.532 89.556,21.1987 97,32.5C 103.522,56.4268 94.3556,69.7601 69.5,72.5C 49.9197,70.0923 40.7531,59.0923 42,39.5C 45.97,28.0228 53.8033,21.0228 65.5,18.5 Z"/></g>
<g><path style="opacity:1" fill="#fafafa" d="M 65.5,20.5 C 88.7011,18.8666 99.2011,29.5332 97,52.5C 90.282,66.4319 79.1153,72.2652 63.5,70C 48.5112,65.3312 42.0112,55.1646 44,39.5C 47.96,29.3643 55.1267,23.0309 65.5,20.5 Z"/></g>
<g><path style="opacity:1" fill="#1a2021" d="M 135.5,15.5 C 159.321,14.4871 170.488,25.8204 169,49.5C 163.542,62.9995 153.375,69.6661 138.5,69.5C 126.371,68.5282 117.871,62.5282 113,51.5C 109.503,37.9905 113.669,27.4905 125.5,20C 128.815,18.1702 132.149,16.6702 135.5,15.5 Z"/></g>
<g><path style="opacity:1" fill="#fafafa" d="M 134.5,17.5 C 158.175,15.342 169.008,26.0087 167,49.5C 163.512,59.1728 156.678,65.0061 146.5,67C 123.971,69.1351 113.138,58.9684 114,36.5C 117.841,26.8217 124.674,20.4884 134.5,17.5 Z"/></g>
<g><path style="opacity:1" fill="#0d0d0d" d="M 123.5,35.5 C 132.705,35.2063 136.205,39.5396 134,48.5C 128.579,55.4331 123.579,55.0997 119,47.5C 117.478,42.2412 118.978,38.2412 123.5,35.5 Z"/></g>
<g><path style="opacity:1" fill="#0d0d0d" d="M 53.5,37.5 C 61.9863,37.1514 65.8197,41.1514 65,49.5C 62.8898,54.9448 59.0564,56.7781 53.5,55C 46.8628,49.2634 46.8628,43.4301 53.5,37.5 Z"/></g>
<g><path style="opacity:1" fill="#e2e2e2" d="M 128.5,44.5 C 129.833,44.5 131.167,44.5 132.5,44.5C 132.5,45.8333 132.5,47.1667 132.5,48.5C 131.167,48.5 129.833,48.5 128.5,48.5C 128.5,47.1667 128.5,45.8333 128.5,44.5 Z"/></g>
<g><path style="opacity:1" fill="#dddddd" d="M 59.5,46.5 C 60.5,46.5 61.5,46.5 62.5,46.5C 62.8841,48.6648 62.2174,50.3315 60.5,51.5C 58.2957,50.218 57.9624,48.5514 59.5,46.5 Z"/></g>
<g><path style="opacity:1" fill="#050807" d="M 121.5,70.5 C 121.5,70.8333 121.5,71.1667 121.5,71.5C 114.68,75.2573 107.346,76.424 99.5,75C 98.6266,73.955 97.6266,73.1217 96.5,72.5C 96.1667,71.8333 95.8333,71.1667 95.5,70.5C 97.2374,64.099 101.571,60.7657 108.5,60.5C 115.852,60.3035 120.185,63.6368 121.5,70.5 Z"/></g>
<g><path style="opacity:1" fill="#f0cd9e" d="M 121.5,71.5 C 124.438,73.934 127.271,76.6007 130,79.5C 131.105,84.9557 128.938,88.2891 123.5,89.5C 119.705,88.4318 116.038,87.0984 112.5,85.5C 109.482,85.3354 106.482,85.502 103.5,86C 99.3552,88.4263 95.0219,88.9263 90.5,87.5C 87.6518,82.7801 87.9852,78.2801 91.5,74C 93.0249,72.9914 94.6916,72.4914 96.5,72.5C 97.6266,73.1217 98.6266,73.955 99.5,75C 107.346,76.424 114.68,75.2573 121.5,71.5 Z"/></g>
<g><path style="opacity:1" fill="#333030" d="M 121.5,70.5 C 127.061,72.5604 130.728,76.3937 132.5,82C 131.748,86.2423 129.415,89.0757 125.5,90.5C 123.585,90.2155 121.919,90.5489 120.5,91.5C 119.833,95.1667 119.167,98.8333 118.5,102.5C 118.826,98.1161 118.492,93.7828 117.5,89.5C 114.979,88.2147 112.313,87.5481 109.5,87.5C 110.5,86.8333 111.5,86.1667 112.5,85.5C 116.038,87.0984 119.705,88.4318 123.5,89.5C 128.938,88.2891 131.105,84.9557 130,79.5C 127.271,76.6007 124.438,73.934 121.5,71.5C 121.5,71.1667 121.5,70.8333 121.5,70.5 Z"/></g>
<g><path style="opacity:1" fill="#f3f3f3" d="M 109.5,87.5 C 112.313,87.5481 114.979,88.2147 117.5,89.5C 118.492,93.7828 118.826,98.1161 118.5,102.5C 116.071,105.915 113.238,106.249 110,103.5C 108.252,98.0994 108.086,92.7661 109.5,87.5 Z"/></g>
<g><path style="opacity:1" fill="#1d1e1e" d="M 95.5,70.5 C 95.8333,71.1667 96.1667,71.8333 96.5,72.5C 94.6916,72.4914 93.0249,72.9914 91.5,74C 87.9852,78.2801 87.6518,82.7801 90.5,87.5C 95.0219,88.9263 99.3552,88.4263 103.5,86C 106.482,85.502 109.482,85.3354 112.5,85.5C 111.5,86.1667 110.5,86.8333 109.5,87.5C 108.086,92.7661 108.252,98.0994 110,103.5C 113.238,106.249 116.071,105.915 118.5,102.5C 119.167,98.8333 119.833,95.1667 120.5,91.5C 120.5,95.5 120.5,99.5 120.5,103.5C 116.249,108.791 111.915,108.791 107.5,103.5C 101.145,108.396 96.645,107.063 94,99.5C 93.502,96.5184 93.3354,93.5184 93.5,90.5C 88.6199,89.6076 86.2866,86.6076 86.5,81.5C 86.9322,75.7343 89.9322,72.0676 95.5,70.5 Z"/></g>
<g><path style="opacity:1" fill="#f6f6f6" d="M 102.5,87.5 C 103.833,87.5 105.167,87.5 106.5,87.5C 106.666,92.1785 106.499,96.8452 106,101.5C 103.872,104.458 101.206,105.124 98,103.5C 95.7798,99.405 95.1131,95.0717 96,90.5C 98.4152,89.8681 100.582,88.8681 102.5,87.5 Z"/></g>
<g><path style="opacity:1" fill="#4b99a1" d="M 125.5,90.5 C 124.432,91.4345 123.099,91.7678 121.5,91.5C 121.817,95.7016 121.483,99.7016 120.5,103.5C 120.5,99.5 120.5,95.5 120.5,91.5C 121.919,90.5489 123.585,90.2155 125.5,90.5 Z"/></g>
<g><path style="opacity:1" fill="#edcb9d" d="M 201.5,148.5 C 207.561,148.242 212.728,150.242 217,154.5C 218.009,156.025 218.509,157.692 218.5,159.5C 216.669,158.948 215.003,158.948 213.5,159.5C 216.759,164.42 215.426,166.253 209.5,165C 201.903,162.203 199.236,156.703 201.5,148.5 Z"/></g>
<g><path style="opacity:1" fill="#edcb9c" d="M 13.5,148.5 C 15.8333,148.5 18.1667,148.5 20.5,148.5C 20.797,152.767 20.4637,156.934 19.5,161C 15.989,163.505 12.1557,165.339 8,166.5C 2.94077,165.414 2.44077,163.414 6.5,160.5C 6.16667,160.167 5.83333,159.833 5.5,159.5C 4.26381,160.246 2.93047,160.579 1.5,160.5C 1.62155,156.853 3.28822,154.019 6.5,152C 8.92521,150.787 11.2585,149.621 13.5,148.5 Z"/></g>
<g><path style="opacity:1" fill="#efcd9e" d="M 178.5,271.5 C 183.815,274.65 187.981,278.983 191,284.5C 190.965,293.204 189.299,293.537 186,285.5C 185.107,284.289 184.274,284.289 183.5,285.5C 189.908,293.523 188.241,296.023 178.5,293C 175.202,288.7 171.535,284.7 167.5,281C 171.684,278.27 175.35,275.104 178.5,271.5 Z"/></g>
<g><path style="opacity:1" fill="#f1ce9f" d="M 38.5,274.5 C 39.552,274.351 40.552,274.517 41.5,275C 45.8269,278.499 50.4936,281.499 55.5,284C 49.9384,286.894 44.9384,290.561 40.5,295C 30.0455,298.695 28.0455,295.862 34.5,286.5C 33.7261,285.289 32.8928,285.289 32,286.5C 28.1724,295.998 26.5057,295.664 27,285.5C 30.0703,280.927 33.9036,277.261 38.5,274.5 Z"/></g>
</svg>
