<?xml version="1.0" encoding="UTF-8"?>
<!DOCTYPE svg PUBLIC "-//W3C//DTD SVG 1.1//EN" "http://www.w3.org/Graphics/SVG/1.1/DTD/svg11.dtd">
<svg xmlns="http://www.w3.org/2000/svg" version="1.1" width="2400px" height="2400px" style="shape-rendering:geometricPrecision; text-rendering:geometricPrecision; image-rendering:optimizeQuality; fill-rule:evenodd; clip-rule:evenodd" xmlns:xlink="http://www.w3.org/1999/xlink">
<g><path style="opacity:0.996" fill="#000000" d="M 1883.5,1679.5 C 1882.76,1679.37 1882.09,1679.54 1881.5,1680C 1855.53,1707.65 1826.86,1731.98 1795.5,1753C 1772.43,1767.69 1747.26,1776.19 1720,1778.5C 1695.51,1778 1674.01,1769.83 1655.5,1754C 1626.11,1726.89 1606.44,1693.89 1596.5,1655C 1562.32,1650 1540.82,1664.17 1532,1697.5C 1530.24,1704.75 1528.9,1712.09 1528,1719.5C 1526.48,1745.48 1526.15,1771.48 1527,1797.5C 1527.29,1805.92 1528.29,1814.25 1530,1822.5C 1537.97,1860.29 1544.64,1898.29 1550,1936.5C 1550.85,1958.88 1550.19,1981.21 1548,2003.5C 1543.63,2032.11 1539.63,2060.78 1536,2089.5C 1528.66,2139.63 1545.5,2179.13 1586.5,2208C 1615.89,2226.18 1647.55,2231.51 1681.5,2224C 1699.81,2220.12 1716.81,2213.12 1732.5,2203C 1762.55,2178.62 1792.88,2154.62 1823.5,2131C 1849.82,2111.67 1878.15,2095.67 1908.5,2083C 1950.01,2070.39 1991.01,2056.39 2031.5,2041C 2057.66,2030.49 2079.49,2014.32 2097,1992.5C 2112.36,1972.53 2110.86,1954.03 2092.5,1937C 2082.77,1929.47 2072.11,1923.47 2060.5,1919C 2042.08,1913.06 2023.41,1908.06 2004.5,1904C 1983.44,1896.6 1967.61,1883.1 1957,1863.5C 1938.16,1826.32 1930.5,1786.99 1934,1745.5C 1935.61,1736.35 1938.61,1727.68 1943,1719.5C 1944.7,1717.3 1946.53,1715.3 1948.5,1713.5C 1954.88,1714.73 1958.38,1718.73 1959,1725.5C 1959.95,1741.86 1961.28,1758.19 1963,1774.5C 1966.08,1790.09 1972.08,1804.42 1981,1817.5C 1998.5,1841.67 2019.33,1862.5 2043.5,1880C 2064.77,1893.61 2085.77,1907.61 2106.5,1922C 2118.37,1932.26 2126.87,1944.76 2132,1959.5C 2135.53,1975.17 2132.2,1989.17 2122,2001.5C 2118.17,2005.33 2114.33,2009.17 2110.5,2013C 2085.51,2030.83 2060.18,2048.16 2034.5,2065C 2007.85,2081.32 1979.85,2094.99 1950.5,2106C 1903.25,2129.1 1859.59,2157.44 1819.5,2191C 1800.22,2210.28 1780.89,2229.61 1761.5,2249C 1733.29,2274.76 1699.96,2288.42 1661.5,2290C 1627.68,2292.17 1594.35,2289.17 1561.5,2281C 1536.31,2273.45 1515.81,2259.29 1500,2238.5C 1491.67,2224.5 1483.33,2210.5 1475,2196.5C 1470.12,2190.62 1463.95,2186.79 1456.5,2185C 1417.89,2182.5 1379.22,2181.17 1340.5,2181C 1269.5,2180.33 1198.5,2180.33 1127.5,2181C 1094.54,2180.91 1061.87,2183.91 1029.5,2190C 1003.12,2195.69 978.787,2206.03 956.5,2221C 935.963,2235.86 916.297,2251.86 897.5,2269C 870.072,2292.35 838.739,2299.69 803.5,2291C 779.661,2285.28 756.327,2277.94 733.5,2269C 697.58,2254.47 661.58,2240.14 625.5,2226C 587.871,2212.57 549.538,2201.57 510.5,2193C 474.806,2185.79 439.139,2178.46 403.5,2171C 376.616,2163.86 349.616,2157.2 322.5,2151C 306.974,2146.84 292.974,2139.84 280.5,2130C 266.911,2116.08 262.411,2099.58 267,2080.5C 273.398,2058.97 280.398,2037.64 288,2016.5C 295.819,1990.55 297.486,1964.22 293,1937.5C 288.741,1920.72 284.074,1904.06 279,1887.5C 273.117,1863.14 273.117,1838.81 279,1814.5C 286.542,1790.8 302.708,1777.64 327.5,1775C 344.172,1774.4 360.839,1774.57 377.5,1775.5C 394.068,1775.63 410.401,1773.8 426.5,1770C 446.378,1764.11 461.545,1752.28 472,1734.5C 475.606,1727.62 478.939,1720.62 482,1713.5C 486.606,1697.29 492.606,1681.62 500,1666.5C 501.039,1665.29 502.206,1664.29 503.5,1663.5C 506.547,1661.89 509.047,1662.55 511,1665.5C 511.667,1667.5 512.333,1669.5 513,1671.5C 513.875,1682.22 513.541,1692.88 512,1703.5C 508.265,1720.44 503.599,1737.11 498,1753.5C 483.99,1785.77 459.156,1801.61 423.5,1801C 411.5,1801.67 399.5,1801.67 387.5,1801C 367.4,1796.4 347.067,1794.73 326.5,1796C 309.485,1800.18 300.818,1811.01 300.5,1828.5C 300.69,1833.93 301.524,1839.26 303,1844.5C 313.195,1868.09 323.195,1891.75 333,1915.5C 346.564,1950 346.898,1984.67 334,2019.5C 324.491,2037.2 313.491,2053.86 301,2069.5C 296.534,2076.22 294.534,2083.56 295,2091.5C 296.417,2097.83 299.917,2102.67 305.5,2106C 312.431,2109.98 319.764,2112.98 327.5,2115C 430.759,2142.06 534.426,2167.4 638.5,2191C 681.19,2202.01 723.857,2213.01 766.5,2224C 790.17,2229.96 814.17,2231.96 838.5,2230C 872.681,2226.84 898.514,2210.68 916,2181.5C 940.221,2132.99 942.888,2083.32 924,2032.5C 914.502,2009.17 903.168,1986.84 890,1965.5C 840.154,1887.8 788.821,1811.13 736,1735.5C 711.435,1701.25 684.601,1668.75 655.5,1638C 641.878,1624.86 626.545,1614.19 609.5,1606C 594.583,1600.49 579.583,1600.15 564.5,1605C 556.073,1609.55 547.406,1613.55 538.5,1617C 534.848,1617.5 531.182,1617.67 527.5,1617.5C 522.814,1612.99 520.314,1607.32 520,1600.5C 517.288,1574.19 516.955,1547.85 519,1521.5C 522.04,1504.09 527.373,1487.42 535,1471.5C 567.495,1413.36 596.162,1353.36 621,1291.5C 636.111,1249.95 651.778,1208.61 668,1167.5C 680.397,1141.02 695.064,1116.02 712,1092.5C 756.614,1035.94 798.281,977.276 837,916.5C 851.388,897.111 865.388,877.445 879,857.5C 890.398,840.13 894.398,821.13 891,800.5C 885.094,695.559 880.427,590.559 877,485.5C 873.455,428.34 877.122,371.674 888,315.5C 914.116,194.386 988.616,125.553 1111.5,109C 1178.48,100.201 1244.48,104.868 1309.5,123C 1370.44,140.872 1421.61,173.705 1463,221.5C 1497,264.206 1517.34,312.872 1524,367.5C 1526.83,386.774 1529.16,406.107 1531,425.5C 1534.98,474.81 1538.64,524.143 1542,573.5C 1544.63,613.539 1549.96,653.206 1558,692.5C 1563.43,718.805 1572.43,743.805 1585,767.5C 1610.98,817.474 1637.98,866.808 1666,915.5C 1680.5,938.51 1695.5,961.176 1711,983.5C 1737.91,1018.32 1764.58,1053.32 1791,1088.5C 1852.46,1174.8 1894.63,1269.96 1917.5,1374C 1928.58,1424.75 1937.08,1475.92 1943,1527.5C 1948.65,1575.59 1936.32,1618.26 1906,1655.5C 1898.66,1663.67 1891.16,1671.67 1883.5,1679.5 Z"/></g>
<g><path style="opacity:1" fill="#fbfbfb" d="M 1324.5,221.5 C 1330.73,220.939 1336.73,221.772 1342.5,224C 1358.51,233.677 1372.34,245.844 1384,260.5C 1385.48,268.701 1381.98,273.201 1373.5,274C 1364.83,274.333 1356.17,274.667 1347.5,275C 1338.23,280.608 1329.23,286.608 1320.5,293C 1315.23,296.205 1309.56,297.539 1303.5,297C 1298.85,294.103 1297.35,289.937 1299,284.5C 1301.56,280.199 1304.9,276.533 1309,273.5C 1310.62,261.487 1312.28,249.487 1314,237.5C 1315.28,230.588 1318.78,225.255 1324.5,221.5 Z"/></g>
<g><path style="opacity:1" fill="#fdfdfd" d="M 1225.5,603.5 C 1206.73,599.452 1188.73,593.118 1171.5,584.5C 1172.12,581.752 1172.45,578.919 1172.5,576C 1163.24,531.17 1170.07,489.004 1193,449.5C 1201.46,436.045 1212.29,424.878 1225.5,416C 1239.38,408.972 1254.05,406.639 1269.5,409C 1287.56,410.818 1305.23,414.485 1322.5,420C 1336.79,425.885 1347.96,435.385 1356,448.5C 1370.95,479.652 1380.95,512.318 1386,546.5C 1387.33,564.651 1386.33,582.651 1383,600.5C 1377.47,625.849 1362.64,633.682 1338.5,624C 1332.75,621.247 1327.92,617.414 1324,612.5C 1323.33,609.5 1323.33,606.5 1324,603.5C 1330.52,588.085 1334.85,572.085 1337,555.5C 1340.35,526.193 1328.52,505.693 1301.5,494C 1250.19,478.282 1221.03,497.116 1214,550.5C 1211.91,569.573 1215.75,587.24 1225.5,603.5 Z"/></g>
<g><path style="opacity:1" fill="#fdfdfd" d="M 1075.5,563.5 C 1065.24,568.15 1054.91,572.817 1044.5,577.5C 1048,566.199 1048.16,554.866 1045,543.5C 1040.22,526.947 1032.56,511.947 1022,498.5C 1014.65,490.435 1005.48,486.768 994.5,487.5C 980.143,488.428 967.976,494.095 958,504.5C 950.939,516.564 948.605,529.564 951,543.5C 952.86,561.419 958.86,577.753 969,592.5C 975.158,597.746 982.158,601.413 990,603.5C 988.874,611.099 986.041,618.099 981.5,624.5C 975.86,628.147 970.527,632.147 965.5,636.5C 958.325,633.499 952.825,628.499 949,621.5C 939.597,601.89 933.93,581.224 932,559.5C 929.453,538.519 929.119,517.519 931,496.5C 934.092,471.812 944.925,451.312 963.5,435C 988.99,417.441 1014.66,417.107 1040.5,434C 1056.81,449.788 1066.98,468.955 1071,491.5C 1075.1,515.316 1076.6,539.316 1075.5,563.5 Z"/></g>
<g><path style="opacity:1" fill="#fafafa" d="M 1269.5,501.5 C 1305.87,503.047 1322.71,522.047 1320,558.5C 1317.39,566.532 1312.39,568.532 1305,564.5C 1303.64,545.606 1295.8,530.106 1281.5,518C 1278.04,516.257 1274.38,515.257 1270.5,515C 1266.71,512.947 1265.54,509.781 1267,505.5C 1268.09,504.307 1268.93,502.973 1269.5,501.5 Z"/></g>
<g><path style="opacity:1" fill="#f8f8f8" d="M 1003.5,507.5 C 1007.3,508.779 1010.47,511.112 1013,514.5C 1016.17,518.841 1018.84,523.508 1021,528.5C 1024.34,539.167 1026.84,550 1028.5,561C 1029.17,566.652 1027.17,570.985 1022.5,574C 1019.97,574.896 1017.81,574.396 1016,572.5C 1014.52,562.291 1012.19,552.291 1009,542.5C 1006.16,535.328 1001.5,529.662 995,525.5C 993.034,520.504 993.2,515.671 995.5,511C 998.501,510.262 1001.17,509.096 1003.5,507.5 Z"/></g>
<g><path style="opacity:1" fill="#f5d22f" d="M 1075.5,563.5 C 1076.14,566.891 1077.31,570.224 1079,573.5C 1080.42,574.46 1081.92,575.293 1083.5,576C 1094.5,575.889 1105.5,575.889 1116.5,576C 1125.45,577.36 1134.45,578.36 1143.5,579C 1151.55,581.405 1159.55,583.905 1167.5,586.5C 1169.35,586.66 1170.69,585.993 1171.5,584.5C 1188.73,593.118 1206.73,599.452 1225.5,603.5C 1235.74,613.627 1247.4,621.793 1260.5,628C 1291.05,641.14 1322.38,652.14 1354.5,661C 1381.21,671.921 1390.71,691.421 1383,719.5C 1377.8,736.107 1372.8,752.774 1368,769.5C 1367.17,776.146 1366.67,782.813 1366.5,789.5C 1354.48,793.923 1342.14,797.256 1329.5,799.5C 1329.06,794.792 1326.72,791.292 1322.5,789C 1317.57,787.582 1312.57,787.249 1307.5,788C 1251.32,819.256 1192.98,845.923 1132.5,868C 1113.81,873.013 1094.81,874.68 1075.5,873C 1063.67,871.17 1052.67,867.17 1042.5,861C 1032.05,851.61 1021.05,842.944 1009.5,835C 1006.33,831.833 1003.17,828.667 1000,825.5C 998.729,821.834 999.896,819.334 1003.5,818C 1009.82,817.5 1016.16,817.334 1022.5,817.5C 1025.27,818.657 1028.27,819.324 1031.5,819.5C 1079.26,826.7 1125.26,820.867 1169.5,802C 1188.38,792.727 1207.38,783.727 1226.5,775C 1256.97,765.512 1286.97,754.846 1316.5,743C 1325.28,739.2 1333.11,734.033 1340,727.5C 1344.43,718.192 1341.93,711.358 1332.5,707C 1329.5,706.333 1326.5,706.333 1323.5,707C 1319.71,709.121 1316.55,711.954 1314,715.5C 1310.83,724 1305,729.833 1296.5,733C 1266.06,744.055 1235.72,755.389 1205.5,767C 1157.67,784.428 1108.34,794.595 1057.5,797.5C 1037.96,798.468 1019.63,794.301 1002.5,785C 997.721,781.522 993.221,777.689 989,773.5C 981.937,762.435 974.103,751.935 965.5,742C 956.984,736.239 947.984,731.239 938.5,727C 933.761,723.687 930.928,719.187 930,713.5C 928.25,691.827 935.75,673.994 952.5,660C 972.33,646.178 990.997,630.845 1008.5,614C 1016.5,608.333 1024.5,602.667 1032.5,597C 1038.81,591.868 1042.81,585.368 1044.5,577.5C 1054.91,572.817 1065.24,568.15 1075.5,563.5 Z"/></g>
<g><path style="opacity:1" fill="#060501" d="M 1153.5,599.5 C 1160.51,599.334 1167.51,599.5 1174.5,600C 1181.11,602.253 1183.27,606.753 1181,613.5C 1179.49,616.937 1176.83,618.27 1173,617.5C 1164.28,615.861 1155.78,613.361 1147.5,610C 1143.36,608.043 1141.02,604.876 1140.5,600.5C 1145.03,600.818 1149.37,600.485 1153.5,599.5 Z"/></g>
<g><path style="opacity:1" fill="#040300" d="M 1054.5,600.5 C 1061.9,600.2 1069.23,600.7 1076.5,602C 1077.41,604.488 1076.41,606.155 1073.5,607C 1068.57,606.955 1063.9,607.955 1059.5,610C 1057.71,616.59 1054.37,622.256 1049.5,627C 1038.24,628.068 1033.74,622.902 1036,611.5C 1041.12,605.866 1047.28,602.2 1054.5,600.5 Z"/></g>
<g><path style="opacity:1" fill="#e6c637" d="M 981.5,624.5 C 978.71,631.964 973.377,635.964 965.5,636.5C 970.527,632.147 975.86,628.147 981.5,624.5 Z"/></g>
<g><path style="opacity:1" fill="#fcfcfc" d="M 1455.5,751.5 C 1457.53,751.338 1459.53,751.505 1461.5,752C 1470.27,761.778 1479.94,770.445 1490.5,778C 1502.89,784.53 1515.56,790.53 1528.5,796C 1535.91,800.98 1538.74,807.814 1537,816.5C 1535.2,822.242 1533.2,827.909 1531,833.5C 1528.95,838.214 1526.12,842.381 1522.5,846C 1517.67,848.147 1513.01,847.814 1508.5,845C 1495.45,835.554 1483.29,825.054 1472,813.5C 1461.19,798.712 1455.02,782.212 1453.5,764C 1453.27,759.584 1453.94,755.417 1455.5,751.5 Z"/></g>
<g><path style="opacity:1" fill="#fefefe" d="M 1366.5,789.5 C 1366.27,805.527 1369.44,820.86 1376,835.5C 1381.24,846.325 1387.24,856.658 1394,866.5C 1405.05,880.551 1415.72,894.885 1426,909.5C 1441.32,935.807 1453.65,963.474 1463,992.5C 1471.6,1020.24 1479.27,1048.24 1486,1076.5C 1488,1081.83 1490,1087.17 1492,1092.5C 1514.59,1134.68 1536.92,1177.01 1559,1219.5C 1584.9,1273.11 1598.24,1329.78 1599,1389.5C 1599.33,1430.17 1599.67,1470.83 1600,1511.5C 1601.03,1520.58 1604.03,1528.91 1609,1536.5C 1612.3,1539.57 1616.13,1541.73 1620.5,1543C 1665.07,1551.15 1695.23,1534.31 1711,1492.5C 1720.53,1465.13 1725.03,1436.96 1724.5,1408C 1723.43,1329.23 1703.27,1255.73 1664,1187.5C 1636.76,1138.62 1606.76,1091.62 1574,1046.5C 1572.99,1044.98 1572.49,1043.31 1572.5,1041.5C 1575.57,1041.55 1578.57,1042.05 1581.5,1043C 1598.01,1051.84 1612.51,1063.34 1625,1077.5C 1657.91,1117.62 1685.58,1161.28 1708,1208.5C 1729.72,1249.65 1743.38,1293.32 1749,1339.5C 1753.64,1399.71 1746.3,1458.38 1727,1515.5C 1726.33,1519.17 1726.33,1522.83 1727,1526.5C 1727.83,1527.33 1728.67,1528.17 1729.5,1529C 1755.1,1536.88 1776.93,1550.72 1795,1570.5C 1800.77,1578.76 1798.6,1581.59 1788.5,1579C 1775.38,1573.61 1762.38,1567.94 1749.5,1562C 1711.67,1550.18 1674,1550.85 1636.5,1564C 1611.6,1574.73 1597.6,1593.56 1594.5,1620.5C 1593.54,1622.26 1593.21,1624.26 1593.5,1626.5C 1587.31,1626.18 1581.31,1626.51 1575.5,1627.5C 1535.16,1627 1511.66,1646.67 1505,1686.5C 1503.92,1698.13 1503.42,1709.8 1503.5,1721.5C 1504.1,1750 1504.76,1778.5 1505.5,1807C 1503.42,1863.82 1501.92,1920.65 1501,1977.5C 1499.91,1993.89 1498.24,2010.23 1496,2026.5C 1489.49,2067.57 1482.99,2108.57 1476.5,2149.5C 1459.1,2151.29 1449.6,2143.29 1448,2125.5C 1446.93,2110.08 1447.6,2094.75 1450,2079.5C 1456.27,2049.18 1463.93,2019.18 1473,1989.5C 1476.91,1973.38 1478.25,1957.05 1477,1940.5C 1472.58,1913.86 1460.08,1909.03 1439.5,1926C 1433.88,1932.07 1428.38,1938.24 1423,1944.5C 1395.29,1988.86 1356.46,2019.03 1306.5,2035C 1279.45,2043.74 1251.79,2049.41 1223.5,2052C 1187.59,2055.72 1151.59,2057.05 1115.5,2056C 1091.9,2055.18 1069.57,2049.52 1048.5,2039C 1034.17,2028 1019.83,2017 1005.5,2006C 999.139,2002.91 992.473,2001.91 985.5,2003C 982.613,2004.71 981.279,2007.21 981.5,2010.5C 981.804,2014.11 982.971,2017.45 985,2020.5C 1017.78,2046.41 1030.78,2080.08 1024,2121.5C 1018.87,2142.29 1007.2,2158.29 989,2169.5C 990.649,2163.84 992.649,2158.17 995,2152.5C 1000.7,2131.37 999.365,2110.7 991,2090.5C 984.701,2075.9 977.368,2061.9 969,2048.5C 951.082,2022.08 932.582,1996.08 913.5,1970.5C 935.489,1961.59 954.655,1948.59 971,1931.5C 987.561,1910 989.894,1887 978,1862.5C 966.363,1843.53 951.863,1827.03 934.5,1813C 845.287,1746.49 760.787,1673.99 681,1595.5C 652.733,1563.61 636.4,1526.28 632,1483.5C 629.272,1452.65 631.939,1422.32 640,1392.5C 643.119,1381.14 647.786,1370.47 654,1360.5C 655.5,1358.33 657.333,1356.5 659.5,1355C 663.068,1354.57 664.734,1356.23 664.5,1360C 653.404,1398.06 648.904,1436.89 651,1476.5C 654.586,1519.39 674.086,1552.89 709.5,1577C 724.549,1585.22 732.716,1580.72 734,1563.5C 731.032,1496.15 736.366,1429.48 750,1363.5C 767.997,1303.17 791.663,1245.17 821,1189.5C 831.086,1174.33 841.42,1159.33 852,1144.5C 858.777,1133.62 861.61,1121.79 860.5,1109C 854.928,1068.94 859.428,1030.11 874,992.5C 891.836,961.829 907.836,930.162 922,897.5C 930.762,877.215 937.096,856.215 941,834.5C 944.196,830.813 947.696,830.647 951.5,834C 956.333,838.833 961.167,843.667 966,848.5C 975.833,862.828 985.166,877.495 994,892.5C 1002.04,901.542 1009.71,910.876 1017,920.5C 1027.58,933.363 1040.42,943.196 1055.5,950C 1057.79,950.822 1060.12,951.489 1062.5,952C 1075.52,952.536 1088.52,952.202 1101.5,951C 1111.54,949.098 1120.87,945.432 1129.5,940C 1147.87,923.957 1166.54,908.291 1185.5,893C 1213.66,873.417 1242.66,855.084 1272.5,838C 1287.72,833.556 1302.05,827.222 1315.5,819C 1319.63,815.869 1323.47,812.369 1327,808.5C 1328.3,805.625 1329.14,802.625 1329.5,799.5C 1342.14,797.256 1354.48,793.923 1366.5,789.5 Z"/></g>
<g><path style="opacity:1" fill="#695a15" d="M 1022.5,817.5 C 1025.88,817.068 1028.88,817.735 1031.5,819.5C 1028.27,819.324 1025.27,818.657 1022.5,817.5 Z"/></g>
<g><path style="opacity:1" fill="#fafafa" d="M 740.5,1134.5 C 743.518,1134.34 746.518,1134.5 749.5,1135C 751.667,1135.83 753.167,1137.33 754,1139.5C 756.206,1155.35 752.206,1169.35 742,1181.5C 732.796,1189.04 724.629,1197.54 717.5,1207C 715.167,1208.67 712.833,1210.33 710.5,1212C 701.996,1212.22 698.83,1208.05 701,1199.5C 708,1191.17 715,1182.83 722,1174.5C 726.043,1165.92 728.709,1156.92 730,1147.5C 731.636,1141.51 735.136,1137.18 740.5,1134.5 Z"/></g>
<g><path style="opacity:1" fill="#f5d22f" d="M 503.5,1663.5 C 502.535,1643.43 510.535,1628.1 527.5,1617.5C 531.182,1617.67 534.848,1617.5 538.5,1617C 547.406,1613.55 556.073,1609.55 564.5,1605C 579.583,1600.15 594.583,1600.49 609.5,1606C 626.545,1614.19 641.878,1624.86 655.5,1638C 684.601,1668.75 711.435,1701.25 736,1735.5C 788.821,1811.13 840.154,1887.8 890,1965.5C 903.168,1986.84 914.502,2009.17 924,2032.5C 942.888,2083.32 940.221,2132.99 916,2181.5C 898.514,2210.68 872.681,2226.84 838.5,2230C 814.17,2231.96 790.17,2229.96 766.5,2224C 723.857,2213.01 681.19,2202.01 638.5,2191C 534.426,2167.4 430.759,2142.06 327.5,2115C 319.764,2112.98 312.431,2109.98 305.5,2106C 299.917,2102.67 296.417,2097.83 295,2091.5C 294.534,2083.56 296.534,2076.22 301,2069.5C 313.491,2053.86 324.491,2037.2 334,2019.5C 346.898,1984.67 346.564,1950 333,1915.5C 323.195,1891.75 313.195,1868.09 303,1844.5C 301.524,1839.26 300.69,1833.93 300.5,1828.5C 300.818,1811.01 309.485,1800.18 326.5,1796C 347.067,1794.73 367.4,1796.4 387.5,1801C 399.5,1801.67 411.5,1801.67 423.5,1801C 459.156,1801.61 483.99,1785.77 498,1753.5C 503.599,1737.11 508.265,1720.44 512,1703.5C 513.541,1692.88 513.875,1682.22 513,1671.5C 512.333,1669.5 511.667,1667.5 511,1665.5C 509.047,1662.55 506.547,1661.89 503.5,1663.5 Z"/></g>
<g><path style="opacity:1" fill="#808080" d="M 1594.5,1620.5 C 1594.5,1622.83 1594.5,1625.17 1594.5,1627.5C 1594.5,1631.17 1594.5,1634.83 1594.5,1638.5C 1593.52,1635.04 1593.19,1631.37 1593.5,1627.5C 1587.5,1627.5 1581.5,1627.5 1575.5,1627.5C 1581.31,1626.51 1587.31,1626.18 1593.5,1626.5C 1593.21,1624.26 1593.54,1622.26 1594.5,1620.5 Z"/></g>
<g><path style="opacity:1" fill="#f7f7f5" d="M 1594.5,1627.5 C 1601.34,1627.59 1607.68,1629.42 1613.5,1633C 1614.82,1633.82 1615.49,1634.98 1615.5,1636.5C 1613.1,1636.13 1610.76,1635.47 1608.5,1634.5C 1603.87,1636.04 1599.21,1637.38 1594.5,1638.5C 1594.5,1634.83 1594.5,1631.17 1594.5,1627.5 Z"/></g>
<g><path style="opacity:1" fill="#f2d033" d="M 1615.5,1636.5 C 1616.95,1644.38 1613.62,1649.54 1605.5,1652C 1602.57,1652.95 1599.57,1653.45 1596.5,1653.5C 1595.51,1648.55 1594.84,1643.55 1594.5,1638.5C 1599.21,1637.38 1603.87,1636.04 1608.5,1634.5C 1610.76,1635.47 1613.1,1636.13 1615.5,1636.5 Z"/></g>
<g><path style="opacity:1" fill="#f5d22f" d="M 1883.5,1679.5 C 1903.55,1681.03 1921.55,1687.86 1937.5,1700C 1941.78,1704.11 1945.45,1708.61 1948.5,1713.5C 1946.53,1715.3 1944.7,1717.3 1943,1719.5C 1938.61,1727.68 1935.61,1736.35 1934,1745.5C 1930.5,1786.99 1938.16,1826.32 1957,1863.5C 1967.61,1883.1 1983.44,1896.6 2004.5,1904C 2023.41,1908.06 2042.08,1913.06 2060.5,1919C 2072.11,1923.47 2082.77,1929.47 2092.5,1937C 2110.86,1954.03 2112.36,1972.53 2097,1992.5C 2079.49,2014.32 2057.66,2030.49 2031.5,2041C 1991.01,2056.39 1950.01,2070.39 1908.5,2083C 1878.15,2095.67 1849.82,2111.67 1823.5,2131C 1792.88,2154.62 1762.55,2178.62 1732.5,2203C 1716.81,2213.12 1699.81,2220.12 1681.5,2224C 1647.55,2231.51 1615.89,2226.18 1586.5,2208C 1545.5,2179.13 1528.66,2139.63 1536,2089.5C 1539.63,2060.78 1543.63,2032.11 1548,2003.5C 1550.19,1981.21 1550.85,1958.88 1550,1936.5C 1544.64,1898.29 1537.97,1860.29 1530,1822.5C 1528.29,1814.25 1527.29,1805.92 1527,1797.5C 1526.15,1771.48 1526.48,1745.48 1528,1719.5C 1528.9,1712.09 1530.24,1704.75 1532,1697.5C 1540.82,1664.17 1562.32,1650 1596.5,1655C 1606.44,1693.89 1626.11,1726.89 1655.5,1754C 1674.01,1769.83 1695.51,1778 1720,1778.5C 1747.26,1776.19 1772.43,1767.69 1795.5,1753C 1826.86,1731.98 1855.53,1707.65 1881.5,1680C 1882.09,1679.54 1882.76,1679.37 1883.5,1679.5 Z"/></g>
</svg>
